<svg width="148" height="178" viewBox="0 0 148 178" fill="none" xmlns="http://www.w3.org/2000/svg">
<path d="M138.461 23.7401C121.988 0.162334 89.451 -6.82626 65.9267 8.16154L24.6207 34.4939C19.0377 38.0041 14.2487 42.6409 10.56 48.1077C6.87131 53.5745 4.364 59.7509 3.1987 66.242C1.2284 77.1738 2.9608 88.4508 8.12171 98.2878C4.58481 103.653 2.17231 109.679 1.03021 116.002C-0.146394 122.623 0.0108033 129.413 1.4927 135.972C2.9746 142.532 5.75121 148.729 9.65981 154.202C26.1334 177.783 58.6719 184.773 82.193 169.78L123.508 143.448C129.09 139.937 133.877 135.3 137.564 129.833C141.252 124.366 143.757 118.19 144.921 111.7C146.894 100.769 145.166 89.4908 140.01 79.6518C143.545 74.2878 145.956 68.2621 147.097 61.9398C148.275 55.3188 148.119 48.5292 146.637 41.9695C145.156 35.4097 142.379 29.212 138.469 23.7401" fill="#FF3E00"/>
<path d="M61.8907 156.421C55.389 158.111 48.5252 157.765 42.2262 155.43C35.9273 153.095 30.4965 148.884 26.6673 143.364C24.3172 140.074 22.6476 136.347 21.7565 132.403C20.8655 128.459 20.7708 124.377 21.4781 120.396C21.7175 119.089 22.0472 117.8 22.4649 116.539L23.2427 114.163L25.3605 115.717C30.247 119.31 35.7111 122.042 41.5173 123.795L43.0522 124.261L42.9112 125.794C42.7248 127.973 43.3156 130.147 44.5792 131.932C45.7322 133.596 47.3683 134.866 49.2663 135.57C51.1644 136.274 53.2328 136.378 55.192 135.868C56.0883 135.63 56.943 135.256 57.7264 134.76L99.04 108.424C100.051 107.788 100.919 106.947 101.587 105.957C102.256 104.967 102.71 103.848 102.923 102.673C103.135 101.472 103.105 100.242 102.837 99.0529C102.568 97.8649 102.065 96.7409 101.358 95.7489C100.204 94.0849 98.568 92.8149 96.671 92.1109C94.773 91.4059 92.704 91.3009 90.745 91.8089C89.849 92.0479 88.994 92.4219 88.21 92.9179L72.445 102.969C69.85 104.617 67.019 105.86 64.0497 106.653C57.548 108.343 50.6841 107.998 44.3851 105.663C38.0861 103.328 32.6553 99.1159 28.8263 93.5959C26.4755 90.3059 24.8054 86.5799 23.914 82.6359C23.0227 78.6919 22.928 74.6089 23.6355 70.6281C24.3376 66.7249 25.8466 63.0112 28.066 59.7245C30.2854 56.4378 33.1663 53.6505 36.5245 51.5409L77.843 25.2101C80.437 23.5594 83.268 22.3153 86.238 21.5209C92.74 19.8309 99.604 20.1767 105.903 22.5117C112.202 24.8466 117.633 29.0582 121.462 34.5779C123.812 37.868 125.482 41.5944 126.373 45.5384C127.265 49.4824 127.36 53.5647 126.653 57.5459C126.411 58.8525 126.081 60.1412 125.664 61.4029L124.886 63.7789L122.77 62.2282C117.884 58.6348 112.42 55.9027 106.613 54.1498L105.077 53.6841L105.219 52.1508C105.405 49.9708 104.815 47.7952 103.553 46.008C102.4 44.3442 100.764 43.0746 98.866 42.3706C96.968 41.6666 94.899 41.5623 92.94 42.0718C92.044 42.3101 91.189 42.684 90.406 43.1806L49.0809 69.5177C48.07 70.1537 47.2028 70.9935 46.5349 71.9839C45.8669 72.9739 45.4129 74.0919 45.2017 75.2679C44.9887 76.4679 45.0172 77.6989 45.2853 78.8879C45.5535 80.0769 46.056 81.1999 46.7635 82.1929C47.9169 83.8569 49.5529 85.1259 51.4507 85.8309C53.3485 86.5349 55.4168 86.6409 57.3763 86.1319C58.2724 85.8929 59.127 85.5199 59.9107 85.0239L75.675 74.9779C78.268 73.3269 81.099 72.0829 84.07 71.2899C90.571 69.6001 97.435 69.9458 103.734 72.2809C110.032 74.6159 115.463 78.8279 119.292 84.3469C121.642 87.6369 123.313 91.3639 124.204 95.3079C125.095 99.2519 125.19 103.334 124.482 107.315C123.782 111.218 122.275 114.932 120.057 118.22C117.84 121.508 114.961 124.297 111.605 126.409L70.286 152.732C67.692 154.383 64.861 155.627 61.8907 156.421Z" fill="white"/>
</svg>
