<svg width="359" height="236" viewBox="0 0 359 236" fill="none" xmlns="http://www.w3.org/2000/svg">
    <path d="M325.237 146.694C265.728 110.121 206.219 183.267 146.711 146.694V89.4501C206.219 126.023 265.728 52.877 325.237 89.4501V146.694Z"
          fill="#0048AF"/>
    <path d="M324.526 89.8017C265.017 53.2287 205.508 126.375 146 89.8017V32.5577C205.508 69.1307 265.017 -4.01529 324.526 32.5577V89.8017Z"
          fill="white"/>
    <path d="M325.237 203.74C265.728 167.167 206.219 240.313 146.711 203.74L96 179.5L146.711 146.5C206.219 183.073 265.728 109.927 325.237 146.5V203.74Z"
          fill="#FF1515"/>
    <g clip-path="url(#clip0_318_451)">
        <path d="M172.461 52.7403C155.988 29.1625 123.451 22.1739 99.9267 37.1617L58.6207 63.4941C53.0377 67.0043 48.2487 71.6411 44.56 77.1079C40.8713 82.5747 38.364 88.7511 37.1987 95.2422C35.2284 106.174 36.9608 117.451 42.1217 127.288C38.5848 132.653 36.1723 138.679 35.0302 145.002C33.8536 151.623 34.0108 158.413 35.4927 164.972C36.9746 171.532 39.7512 177.729 43.6598 183.202C60.1334 206.783 92.6719 213.773 116.193 198.78L157.508 172.448C163.09 168.937 167.877 164.3 171.564 158.833C175.252 153.366 177.757 147.19 178.921 140.7C180.894 129.769 179.166 118.491 174.01 108.652C177.545 103.288 179.956 97.2623 181.097 90.94C182.275 84.319 182.119 77.5294 180.637 70.9697C179.156 64.4099 176.379 58.2122 172.469 52.7403"
              fill="#FF3E00"/>
        <path d="M95.8907 185.421C89.389 187.111 82.5252 186.765 76.2262 184.43C69.9273 182.095 64.4965 177.884 60.6673 172.364C58.3172 169.074 56.6476 165.347 55.7565 161.403C54.8655 157.459 54.7708 153.377 55.4781 149.396C55.7175 148.089 56.0472 146.8 56.4649 145.539L57.2427 143.163L59.3605 144.717C64.247 148.31 69.7111 151.042 75.5173 152.795L77.0522 153.261L76.9112 154.794C76.7248 156.973 77.3156 159.147 78.5792 160.932C79.7322 162.596 81.3683 163.866 83.2663 164.57C85.1644 165.274 87.2328 165.378 89.192 164.868C90.0883 164.63 90.943 164.256 91.7264 163.76L133.04 137.424C134.051 136.788 134.919 135.947 135.587 134.957C136.256 133.967 136.71 132.848 136.923 131.673C137.135 130.472 137.105 129.242 136.837 128.053C136.568 126.865 136.065 125.741 135.358 124.749C134.204 123.085 132.568 121.815 130.671 121.111C128.773 120.406 126.704 120.301 124.745 120.809C123.849 121.048 122.994 121.422 122.21 121.918L106.445 131.969C103.85 133.617 101.019 134.86 98.0497 135.653C91.548 137.343 84.6841 136.998 78.3851 134.663C72.0861 132.328 66.6553 128.116 62.8263 122.596C60.4755 119.306 58.8054 115.58 57.914 111.636C57.0227 107.692 56.928 103.609 57.6355 99.6282C58.3376 95.725 59.8466 92.0113 62.066 88.7246C64.2854 85.4379 67.1663 82.6506 70.5245 80.541L111.843 54.2102C114.437 52.5595 117.268 51.3154 120.238 50.521C126.74 48.831 133.604 49.1768 139.903 51.5118C146.202 53.8467 151.633 58.0583 155.462 63.578C157.812 66.8681 159.482 70.5945 160.373 74.5385C161.265 78.4825 161.36 82.5648 160.653 86.546C160.411 87.8526 160.081 89.1413 159.664 90.403L158.886 92.779L156.77 91.2283C151.884 87.6349 146.42 84.9028 140.613 83.1499L139.077 82.6842L139.219 81.1509C139.405 78.9709 138.815 76.7953 137.553 75.0081C136.4 73.3443 134.764 72.0747 132.866 71.3707C130.968 70.6667 128.899 70.5624 126.94 71.0719C126.044 71.3102 125.189 71.6841 124.406 72.1807L83.0809 98.5178C82.07 99.1538 81.2028 99.9936 80.5349 100.984C79.8669 101.974 79.4129 103.092 79.2017 104.268C78.9887 105.468 79.0172 106.699 79.2853 107.888C79.5535 109.077 80.056 110.2 80.7635 111.193C81.9169 112.857 83.5529 114.126 85.4507 114.831C87.3485 115.535 89.4168 115.641 91.3763 115.132C92.2724 114.893 93.127 114.52 93.9107 114.024L109.675 103.978C112.268 102.327 115.099 101.083 118.07 100.29C124.571 98.6002 131.435 98.9459 137.734 101.281C144.032 103.616 149.463 107.828 153.292 113.347C155.642 116.637 157.313 120.364 158.204 124.308C159.095 128.252 159.19 132.334 158.482 136.315C157.782 140.218 156.275 143.932 154.057 147.22C151.84 150.508 148.961 153.297 145.605 155.409L104.286 181.732C101.692 183.383 98.861 184.627 95.8907 185.421"
              fill="white"/>
    </g>
    <path d="M235 100.945L253.48 97L237.766 132L257 128.436" stroke="white" stroke-width="5"/>
    <defs>
        <clipPath id="clip0_318_451">
            <rect width="147.667" height="177.408" fill="white" transform="translate(34.2275 29.267)"/>
        </clipPath>
    </defs>
</svg>
